<svg xmlns="http://www.w3.org/2000/svg" width="600" height="440" viewBox="0 0 600 440">
<defs><pattern id="dots" width="18" height="18" patternUnits="userSpaceOnUse"><circle cx="1" cy="1" r="1" fill="#728055" opacity=".13"/></pattern></defs>
<path d="M67 298C-19 129 155 33 285 38s298 64 265 231-384 211-483 29" fill="#e9efd7"/><path d="M67 298C-19 129 155 33 285 38s298 64 265 231-384 211-483 29" fill="url(#dots)"/>
<circle cx="464" cy="86" r="32" fill="#f7c553"/><g stroke="#e6b349" stroke-width="4" stroke-linecap="round"><path d="M463 39v-8m34 24 6-6m6 38h10m-25 33 7 7m-71-73-6-6"/></g>
<path d="M102 126c1-16 22-23 33-13 13-27 46-16 45 7 30-5 35 28 5 28h-73c-15 0-20-15-10-22" fill="#fffdf6"/>
<path d="M367 346q48-76 101-12" fill="none" stroke="#b9c993" stroke-width="3" stroke-dasharray="5 8"/>
<ellipse cx="281" cy="356" rx="159" ry="18" fill="#cbd5b2" opacity=".6"/>
<path d="M340 355q23-86 68-89" fill="none" stroke="#638059" stroke-width="5"/><path d="M384 286q-49-35-45 11 17 18 35 8m13-26q8-50 39-34 9 34-30 39" fill="#98b479"/>
<g transform="rotate(-8 260 260)"><path d="M189 330q-8-100 10-125c-58-117 5-155 28-75l15 67c15-8 35-10 48-4 13-128 79-125 64-58l-23 80c25 28 28 106 0 135" fill="#fffdf4" stroke="#355948" stroke-width="4"/><path d="m211 151 14 38m90-47-13 48" stroke="#e7b8a8" stroke-width="10" stroke-linecap="round"/><ellipse cx="260" cy="269" rx="78" ry="64" fill="#fffdf4"/><circle cx="237" cy="245" r="5" fill="#355948"/><circle cx="291" cy="245" r="5" fill="#355948"/><ellipse cx="221" cy="261" rx="13" ry="7" fill="#eab5a5"/><ellipse cx="306" cy="261" rx="13" ry="7" fill="#eab5a5"/><path d="m256 258 8 6 8-6m-8 6v9m0-1q-11 11-17 0m17 0q11 11 17 0" fill="none" stroke="#355948" stroke-width="3" stroke-linecap="round"/>
<path d="M194 316q30-35 68-12 35-23 73 9l-1 43q-43-19-72 0-31-15-67 0Z" fill="#efb44d" stroke="#355948" stroke-width="3"/><path d="M262 304v52" stroke="#355948" stroke-width="3"/><path d="m210 322 30 3m-30 11 25 1m45-15 34 1m-33 11 26 1" stroke="#fff3cd" stroke-width="4" stroke-linecap="round"/><path d="M182 298q-24 23 17 34m134-23q40 11 16 28" fill="#fffdf4" stroke="#355948" stroke-width="4" stroke-linecap="round"/></g>
<g transform="rotate(8 433 181)"><rect x="383" y="150" width="121" height="58" rx="22" fill="#fffdf6" stroke="#d7ddc8" stroke-width="2"/><path d="m404 207 2 13 17-14" fill="#fffdf6"/><text x="443" y="187" text-anchor="middle" font-family="Trebuchet MS,sans-serif" font-weight="bold" font-size="27" fill="#355948">Hello!</text></g>
<path d="m127 281 7-20 9 20 20 6-20 7-8 21-8-21-20-7Z" fill="#efb44d"/><circle cx="405" cy="369" r="5" fill="#d4a481"/><circle cx="153" cy="351" r="4" fill="#68885a"/><path d="M88 342q11-20 19 0m-7-9v28" fill="none" stroke="#6e8d5c" stroke-width="4" stroke-linecap="round"/>
</svg>
